<svg width="1432" height="200" viewBox="0 0 1432 200" fill="none" xmlns="http://www.w3.org/2000/svg">
<g style="mix-blend-mode:multiply" opacity="0.3">
<path d="M5.03886 19.9929L-23.1962 -5.32392C-23.7877 -5.85435 -24.7229 -5.78332 -25.2022 -5.13954C-30.9205 2.48521 -29.3687 13.9141 -21.3916 21.0668C-13.4145 28.2194 -1.88702 28.5227 5.07355 22.0071C5.65884 21.4583 5.63042 20.5233 5.03886 19.9929Z" fill="#FF6633"/>
<path d="M151.221 192.796L179.456 218.113C180.047 218.643 180.983 218.572 181.462 217.928C187.18 210.304 185.629 198.875 177.651 191.722C169.674 184.569 158.147 184.266 151.186 190.782C150.601 191.33 150.629 192.265 151.221 192.796Z" fill="#FF6633"/>
<path d="M183.079 69.1119L153.715 45.1138C153.1 44.611 152.169 44.7247 151.719 45.3898C146.356 53.2682 148.429 64.6141 156.725 71.3942C165.021 78.1743 176.551 77.9497 183.206 71.1224C183.765 70.5474 183.694 69.6147 183.079 69.1119Z" fill="#FF6633"/>
<path d="M-7.40334 152.597L19.3053 125.675C19.8648 125.111 19.8411 124.173 19.2223 123.662C11.8956 117.567 0.402973 118.54 -7.14288 126.146C-14.6887 133.753 -15.573 145.25 -9.41676 152.53C-8.89817 153.143 -7.96292 153.161 -7.40334 152.597Z" fill="#FF6633"/>
<path d="M172.571 110.581C178.139 109.99 183.614 118.565 184.8 129.734C185.986 140.903 182.434 150.437 176.867 151.029C171.299 151.62 165.824 143.045 164.637 131.876C163.451 120.706 167.003 111.173 172.571 110.581Z" fill="#FCA21C"/>
<path d="M111.855 4.90633C115.476 7.509 113.097 17.0123 106.541 26.1326C99.985 35.2529 91.7353 40.5364 88.1145 37.9337C84.4938 35.3311 86.8732 25.8278 93.429 16.7075C99.9849 7.58721 108.235 2.30366 111.855 4.90633Z" fill="#FCA21C"/>
<path d="M57.9774 159.895C53.5445 159.412 50.9367 149.969 52.1526 138.803C53.3685 127.637 57.9478 118.977 62.3807 119.459C66.8136 119.942 69.4215 129.385 68.2056 140.551C66.9896 151.717 62.4103 160.378 57.9774 159.895Z" fill="#FCA21C"/>
<path fill-rule="evenodd" clip-rule="evenodd" d="M60.3295 64.6266C62.1844 67.2202 61.5838 70.8213 58.9882 72.67C53.1432 76.833 45.2771 78.069 37.827 75.6484C30.3768 73.2277 24.7409 67.6034 22.4589 60.8016C21.4452 57.7804 23.0757 54.5139 26.1007 53.5056C29.1256 52.4972 32.3995 54.129 33.4131 57.1501C34.49 60.3598 37.2994 63.3519 41.3904 64.6812C45.4828 66.0108 49.5143 65.2415 52.2713 63.2779C54.8669 61.4292 58.4747 62.0331 60.3295 64.6266Z" fill="#70C05B"/>
<path fill-rule="evenodd" clip-rule="evenodd" d="M102.578 135.599C100.723 133.006 101.323 129.404 103.919 127.556C109.764 123.393 117.63 122.157 125.08 124.577C132.53 126.998 138.166 132.622 140.448 139.424C141.462 142.445 139.831 145.712 136.807 146.72C133.782 147.729 130.508 146.097 129.494 143.076C128.417 139.866 125.608 136.874 121.517 135.545C117.424 134.215 113.393 134.984 110.636 136.948C108.04 138.797 104.433 138.193 102.578 135.599Z" fill="#70C05B"/>
<path fill-rule="evenodd" clip-rule="evenodd" d="M160.272 -0.775622C159.762 -3.92318 161.9 -6.88277 165.047 -7.38604C172.133 -8.51935 179.729 -6.13255 185.329 -0.654418C190.928 4.8238 193.479 12.3663 192.502 19.4738C192.068 22.6308 189.156 24.8331 185.998 24.3928C182.84 23.9525 180.632 21.0363 181.066 17.8793C181.527 14.5254 180.339 10.5967 177.264 7.58847C174.189 4.57932 170.235 3.47773 166.893 4.01229C163.746 4.51556 160.782 2.37194 160.272 -0.775622Z" fill="#70C05B"/>
<path fill-rule="evenodd" clip-rule="evenodd" d="M70.699 200.053C72.9535 202.308 72.9507 205.959 70.6929 208.207C65.6084 213.271 58.0509 215.779 50.305 214.611C42.5589 213.443 36.0781 208.817 32.7132 202.481C31.2185 199.666 32.2921 196.177 35.1111 194.687C37.9301 193.197 41.427 194.27 42.9216 197.085C44.5095 200.075 47.771 202.567 52.0245 203.208C56.2793 203.85 60.1304 202.431 62.5287 200.042C64.7866 197.793 68.4445 197.798 70.699 200.053Z" fill="#70C05B"/>
<path d="M36.7235 3.95803C35.2204 1.71704 35.8186 -1.31813 38.0596 -2.82121L61.797 -18.7424C64.0379 -20.2455 67.0731 -19.6473 68.5762 -17.4063L73.2709 -10.4068C74.774 -8.16586 74.1758 -5.13069 71.9348 -3.62761L48.1975 12.2936C45.9565 13.7967 42.9213 13.1985 41.4182 10.9575L36.7235 3.95803Z" fill="#1CB9FC"/>
<path d="M90.3576 177.491C89.782 174.854 91.4526 172.251 94.0888 171.675L122.013 165.579C124.65 165.003 127.253 166.674 127.829 169.31L129.627 177.544C130.202 180.18 128.532 182.784 125.895 183.36L97.9708 189.456C95.3346 190.032 92.7308 188.361 92.1553 185.725L90.3576 177.491Z" fill="#1CB9FC"/>
<path d="M118.497 99.1414C116.483 100.938 113.394 100.761 111.598 98.7476L92.5723 77.4178C90.7761 75.4041 90.9525 72.3156 92.9661 70.5194L99.2557 64.9092C101.269 63.113 104.358 63.2893 106.154 65.303L125.18 86.6328C126.976 88.6465 126.8 91.735 124.786 93.5312L118.497 99.1414Z" fill="#1CB9FC"/>
<path d="M257.039 19.9929L228.804 -5.32392C228.212 -5.85435 227.277 -5.78332 226.798 -5.13954C221.079 2.48521 222.631 13.9141 230.608 21.0668C238.585 28.2194 250.113 28.5227 257.074 22.0071C257.659 21.4583 257.63 20.5233 257.039 19.9929Z" fill="#FF6633"/>
<path d="M403.221 192.796L431.456 218.113C432.047 218.643 432.983 218.572 433.462 217.928C439.18 210.304 437.629 198.875 429.651 191.722C421.674 184.569 410.147 184.266 403.186 190.782C402.601 191.33 402.629 192.265 403.221 192.796Z" fill="#FF6633"/>
<path d="M435.079 69.1119L405.715 45.1138C405.1 44.611 404.169 44.7247 403.719 45.3898C398.356 53.2682 400.429 64.6141 408.725 71.3942C417.021 78.1743 428.551 77.9497 435.206 71.1224C435.765 70.5474 435.694 69.6147 435.079 69.1119Z" fill="#FF6633"/>
<path d="M244.597 152.597L271.305 125.675C271.865 125.111 271.841 124.173 271.222 123.662C263.896 117.567 252.403 118.54 244.857 126.146C237.311 133.753 236.427 145.25 242.583 152.53C243.102 153.143 244.037 153.161 244.597 152.597Z" fill="#FF6633"/>
<path d="M238.915 91.3229C233.347 91.9142 227.872 83.3391 226.686 72.1699C225.5 61.0007 229.052 51.4669 234.62 50.8756C240.188 50.2843 245.663 58.8594 246.849 70.0286C248.035 81.1978 244.483 90.7316 238.915 91.3229Z" fill="#FCA21C"/>
<path d="M424.571 110.581C430.139 109.99 435.614 118.565 436.8 129.734C437.986 140.903 434.434 150.437 428.867 151.029C423.299 151.62 417.824 143.045 416.637 131.876C415.451 120.706 419.003 111.173 424.571 110.581Z" fill="#FCA21C"/>
<path d="M363.855 4.90633C367.476 7.509 365.097 17.0123 358.541 26.1326C351.985 35.2529 343.735 40.5364 340.115 37.9337C336.494 35.3311 338.873 25.8278 345.429 16.7075C351.985 7.58721 360.235 2.30366 363.855 4.90633Z" fill="#FCA21C"/>
<path d="M309.977 159.895C305.545 159.412 302.937 149.969 304.153 138.803C305.369 127.637 309.948 118.977 314.381 119.459C318.814 119.942 321.422 129.385 320.206 140.551C318.99 151.717 314.41 160.378 309.977 159.895Z" fill="#FCA21C"/>
<path fill-rule="evenodd" clip-rule="evenodd" d="M312.33 64.6266C314.184 67.2202 313.584 70.8213 310.988 72.67C305.143 76.833 297.277 78.069 289.827 75.6484C282.377 73.2277 276.741 67.6034 274.459 60.8016C273.445 57.7804 275.076 54.5139 278.101 53.5056C281.126 52.4972 284.399 54.129 285.413 57.1501C286.49 60.3598 289.299 63.3519 293.39 64.6812C297.483 66.0108 301.514 65.2415 304.271 63.2779C306.867 61.4292 310.475 62.0331 312.33 64.6266Z" fill="#70C05B"/>
<path fill-rule="evenodd" clip-rule="evenodd" d="M354.578 135.599C352.723 133.006 353.323 129.404 355.919 127.556C361.764 123.393 369.63 122.157 377.08 124.577C384.53 126.998 390.166 132.622 392.448 139.424C393.462 142.445 391.831 145.712 388.807 146.72C385.782 147.729 382.508 146.097 381.494 143.076C380.417 139.866 377.608 136.874 373.517 135.545C369.424 134.215 365.393 134.984 362.636 136.948C360.04 138.797 356.433 138.193 354.578 135.599Z" fill="#70C05B"/>
<path fill-rule="evenodd" clip-rule="evenodd" d="M412.272 -0.775622C411.762 -3.92318 413.9 -6.88277 417.047 -7.38604C424.133 -8.51935 431.729 -6.13255 437.329 -0.654418C442.928 4.8238 445.479 12.3663 444.502 19.4738C444.068 22.6308 441.156 24.8331 437.998 24.3928C434.84 23.9525 432.632 21.0363 433.066 17.8793C433.527 14.5254 432.339 10.5967 429.264 7.58847C426.189 4.57932 422.235 3.47773 418.893 4.01229C415.746 4.51556 412.782 2.37194 412.272 -0.775622Z" fill="#70C05B"/>
<path fill-rule="evenodd" clip-rule="evenodd" d="M322.699 200.053C324.953 202.308 324.951 205.959 322.693 208.207C317.608 213.271 310.051 215.779 302.305 214.611C294.559 213.443 288.078 208.817 284.713 202.481C283.219 199.666 284.292 196.177 287.111 194.687C289.93 193.197 293.427 194.27 294.922 197.085C296.51 200.075 299.771 202.567 304.024 203.208C308.279 203.85 312.13 202.431 314.529 200.042C316.787 197.793 320.445 197.798 322.699 200.053Z" fill="#70C05B"/>
<path d="M288.724 3.95803C287.22 1.71704 287.819 -1.31813 290.06 -2.82121L313.797 -18.7424C316.038 -20.2455 319.073 -19.6473 320.576 -17.4063L325.271 -10.4068C326.774 -8.16586 326.176 -5.13069 323.935 -3.62761L300.197 12.2936C297.956 13.7967 294.921 13.1985 293.418 10.9575L288.724 3.95803Z" fill="#1CB9FC"/>
<path d="M342.358 177.491C341.782 174.854 343.453 172.251 346.089 171.675L374.013 165.579C376.65 165.003 379.253 166.674 379.829 169.31L381.627 177.544C382.202 180.18 380.532 182.784 377.895 183.36L349.971 189.456C347.335 190.032 344.731 188.361 344.155 185.725L342.358 177.491Z" fill="#1CB9FC"/>
<path d="M370.497 99.1414C368.483 100.938 365.394 100.761 363.598 98.7476L344.572 77.4178C342.776 75.4041 342.952 72.3156 344.966 70.5194L351.256 64.9092C353.269 63.113 356.358 63.2893 358.154 65.303L377.18 86.6328C378.976 88.6465 378.8 91.735 376.786 93.5312L370.497 99.1414Z" fill="#1CB9FC"/>
<path d="M237.659 173.558C240.319 173.101 242.845 174.887 243.301 177.547L248.137 205.717C248.593 208.376 246.808 210.902 244.148 211.359L235.842 212.785C233.182 213.241 230.656 211.455 230.199 208.796L225.364 180.626C224.907 177.966 226.693 175.44 229.353 174.984L237.659 173.558Z" fill="#1CB9FC"/>
<path d="M509.039 19.9929L480.804 -5.32392C480.212 -5.85435 479.277 -5.78332 478.798 -5.13954C473.079 2.48521 474.631 13.9141 482.608 21.0668C490.585 28.2194 502.113 28.5227 509.074 22.0071C509.659 21.4583 509.63 20.5233 509.039 19.9929Z" fill="#FF6633"/>
<path d="M655.221 192.796L683.456 218.113C684.047 218.643 684.983 218.572 685.462 217.928C691.18 210.304 689.629 198.875 681.651 191.722C673.674 184.569 662.147 184.266 655.186 190.782C654.601 191.33 654.629 192.265 655.221 192.796Z" fill="#FF6633"/>
<path d="M687.079 69.1119L657.715 45.1138C657.1 44.611 656.169 44.7247 655.719 45.3898C650.356 53.2682 652.429 64.6141 660.725 71.3942C669.021 78.1743 680.551 77.9497 687.206 71.1224C687.765 70.5474 687.694 69.6147 687.079 69.1119Z" fill="#FF6633"/>
<path d="M496.597 152.597L523.305 125.675C523.865 125.111 523.841 124.173 523.222 123.662C515.896 117.567 504.403 118.54 496.857 126.146C489.311 133.753 488.427 145.25 494.583 152.53C495.102 153.143 496.037 153.161 496.597 152.597Z" fill="#FF6633"/>
<path d="M490.915 91.3229C485.347 91.9142 479.872 83.3391 478.686 72.1699C477.5 61.0007 481.052 51.4669 486.62 50.8756C492.188 50.2843 497.663 58.8594 498.849 70.0286C500.035 81.1978 496.483 90.7316 490.915 91.3229Z" fill="#FCA21C"/>
<path d="M676.571 110.581C682.139 109.99 687.614 118.565 688.8 129.734C689.986 140.903 686.434 150.437 680.867 151.029C675.299 151.62 669.824 143.045 668.637 131.876C667.451 120.706 671.003 111.173 676.571 110.581Z" fill="#FCA21C"/>
<path d="M615.855 4.90633C619.476 7.509 617.097 17.0123 610.541 26.1326C603.985 35.2529 595.735 40.5364 592.115 37.9337C588.494 35.3311 590.873 25.8278 597.429 16.7075C603.985 7.58721 612.235 2.30366 615.855 4.90633Z" fill="#FCA21C"/>
<path d="M561.977 159.895C557.545 159.412 554.937 149.969 556.153 138.803C557.369 127.637 561.948 118.977 566.381 119.459C570.814 119.942 573.422 129.385 572.206 140.551C570.99 151.717 566.41 160.378 561.977 159.895Z" fill="#FCA21C"/>
<path fill-rule="evenodd" clip-rule="evenodd" d="M564.33 64.6266C566.184 67.2202 565.584 70.8213 562.988 72.67C557.143 76.833 549.277 78.069 541.827 75.6484C534.377 73.2277 528.741 67.6034 526.459 60.8016C525.445 57.7804 527.076 54.5139 530.101 53.5056C533.126 52.4972 536.399 54.129 537.413 57.1501C538.49 60.3598 541.299 63.3519 545.39 64.6812C549.483 66.0108 553.514 65.2415 556.271 63.2779C558.867 61.4292 562.475 62.0331 564.33 64.6266Z" fill="#70C05B"/>
<path fill-rule="evenodd" clip-rule="evenodd" d="M606.578 135.599C604.723 133.006 605.323 129.404 607.919 127.556C613.764 123.393 621.63 122.157 629.08 124.577C636.53 126.998 642.166 132.622 644.448 139.424C645.462 142.445 643.831 145.712 640.807 146.72C637.782 147.729 634.508 146.097 633.494 143.076C632.417 139.866 629.608 136.874 625.517 135.545C621.424 134.215 617.393 134.984 614.636 136.948C612.04 138.797 608.433 138.193 606.578 135.599Z" fill="#70C05B"/>
<path fill-rule="evenodd" clip-rule="evenodd" d="M664.272 -0.775622C663.762 -3.92318 665.9 -6.88277 669.047 -7.38604C676.133 -8.51935 683.729 -6.13255 689.329 -0.654418C694.928 4.8238 697.479 12.3663 696.502 19.4738C696.068 22.6308 693.156 24.8331 689.998 24.3928C686.84 23.9525 684.632 21.0363 685.066 17.8793C685.527 14.5254 684.339 10.5967 681.264 7.58847C678.189 4.57932 674.235 3.47773 670.893 4.01229C667.746 4.51556 664.782 2.37194 664.272 -0.775622Z" fill="#70C05B"/>
<path fill-rule="evenodd" clip-rule="evenodd" d="M574.699 200.053C576.953 202.308 576.951 205.959 574.693 208.207C569.608 213.271 562.051 215.779 554.305 214.611C546.559 213.443 540.078 208.817 536.713 202.481C535.219 199.666 536.292 196.177 539.111 194.687C541.93 193.197 545.427 194.27 546.922 197.085C548.51 200.075 551.771 202.567 556.024 203.208C560.279 203.85 564.13 202.431 566.529 200.042C568.787 197.793 572.445 197.798 574.699 200.053Z" fill="#70C05B"/>
<path d="M540.724 3.95803C539.22 1.71704 539.819 -1.31813 542.06 -2.82121L565.797 -18.7424C568.038 -20.2455 571.073 -19.6473 572.576 -17.4063L577.271 -10.4068C578.774 -8.16586 578.176 -5.13069 575.935 -3.62761L552.197 12.2936C549.956 13.7967 546.921 13.1985 545.418 10.9575L540.724 3.95803Z" fill="#1CB9FC"/>
<path d="M594.358 177.491C593.782 174.854 595.453 172.251 598.089 171.675L626.013 165.579C628.65 165.003 631.253 166.674 631.829 169.31L633.627 177.544C634.202 180.18 632.532 182.784 629.895 183.36L601.971 189.456C599.335 190.032 596.731 188.361 596.155 185.725L594.358 177.491Z" fill="#1CB9FC"/>
<path d="M622.497 99.1414C620.483 100.938 617.394 100.761 615.598 98.7476L596.572 77.4178C594.776 75.4041 594.952 72.3156 596.966 70.5194L603.256 64.9092C605.269 63.113 608.358 63.2893 610.154 65.303L629.18 86.6328C630.976 88.6465 630.8 91.735 628.786 93.5312L622.497 99.1414Z" fill="#1CB9FC"/>
<path d="M489.659 173.558C492.319 173.101 494.845 174.887 495.301 177.547L500.137 205.717C500.593 208.376 498.808 210.902 496.148 211.359L487.842 212.785C485.182 213.241 482.656 211.455 482.199 208.796L477.364 180.626C476.907 177.966 478.693 175.44 481.353 174.984L489.659 173.558Z" fill="#1CB9FC"/>
<path d="M761.039 19.9929L732.804 -5.32392C732.212 -5.85435 731.277 -5.78332 730.798 -5.13954C725.079 2.48521 726.631 13.9141 734.608 21.0668C742.585 28.2194 754.113 28.5227 761.074 22.0071C761.659 21.4583 761.63 20.5233 761.039 19.9929Z" fill="#FF6633"/>
<path d="M907.221 192.796L935.456 218.113C936.047 218.643 936.983 218.572 937.462 217.928C943.18 210.304 941.629 198.875 933.651 191.722C925.674 184.569 914.147 184.266 907.186 190.782C906.601 191.33 906.629 192.265 907.221 192.796Z" fill="#FF6633"/>
<path d="M939.079 69.1119L909.715 45.1138C909.1 44.611 908.169 44.7247 907.719 45.3898C902.356 53.2682 904.429 64.6141 912.725 71.3942C921.021 78.1743 932.551 77.9497 939.206 71.1224C939.765 70.5474 939.694 69.6147 939.079 69.1119Z" fill="#FF6633"/>
<path d="M748.597 152.597L775.305 125.675C775.865 125.111 775.841 124.173 775.222 123.662C767.896 117.567 756.403 118.54 748.857 126.146C741.311 133.753 740.427 145.25 746.583 152.53C747.102 153.143 748.037 153.161 748.597 152.597Z" fill="#FF6633"/>
<path d="M742.915 91.3229C737.347 91.9142 731.872 83.3391 730.686 72.1699C729.5 61.0007 733.052 51.4669 738.62 50.8756C744.188 50.2843 749.663 58.8594 750.849 70.0286C752.035 81.1978 748.483 90.7316 742.915 91.3229Z" fill="#FCA21C"/>
<path d="M928.571 110.581C934.139 109.99 939.614 118.565 940.8 129.734C941.986 140.903 938.434 150.437 932.867 151.029C927.299 151.62 921.824 143.045 920.637 131.876C919.451 120.706 923.003 111.173 928.571 110.581Z" fill="#FCA21C"/>
<path d="M867.855 4.90633C871.476 7.509 869.097 17.0123 862.541 26.1326C855.985 35.2529 847.735 40.5364 844.115 37.9337C840.494 35.3311 842.873 25.8278 849.429 16.7075C855.985 7.58721 864.235 2.30366 867.855 4.90633Z" fill="#FCA21C"/>
<path d="M813.977 159.895C809.545 159.412 806.937 149.969 808.153 138.803C809.369 127.637 813.948 118.977 818.381 119.459C822.814 119.942 825.422 129.385 824.206 140.551C822.99 151.717 818.41 160.378 813.977 159.895Z" fill="#FCA21C"/>
<path fill-rule="evenodd" clip-rule="evenodd" d="M816.33 64.6266C818.184 67.2202 817.584 70.8213 814.988 72.67C809.143 76.833 801.277 78.069 793.827 75.6484C786.377 73.2277 780.741 67.6034 778.459 60.8016C777.445 57.7804 779.076 54.5139 782.101 53.5056C785.126 52.4972 788.399 54.129 789.413 57.1501C790.49 60.3598 793.299 63.3519 797.39 64.6812C801.483 66.0108 805.514 65.2415 808.271 63.2779C810.867 61.4292 814.475 62.0331 816.33 64.6266Z" fill="#70C05B"/>
<path fill-rule="evenodd" clip-rule="evenodd" d="M858.578 135.599C856.723 133.006 857.323 129.404 859.919 127.556C865.764 123.393 873.63 122.157 881.08 124.577C888.53 126.998 894.166 132.622 896.448 139.424C897.462 142.445 895.831 145.712 892.807 146.72C889.782 147.729 886.508 146.097 885.494 143.076C884.417 139.866 881.608 136.874 877.517 135.545C873.424 134.215 869.393 134.984 866.636 136.948C864.04 138.797 860.433 138.193 858.578 135.599Z" fill="#70C05B"/>
<path fill-rule="evenodd" clip-rule="evenodd" d="M916.272 -0.775622C915.762 -3.92318 917.9 -6.88277 921.047 -7.38604C928.133 -8.51935 935.729 -6.13255 941.329 -0.654418C946.928 4.8238 949.479 12.3663 948.502 19.4738C948.068 22.6308 945.156 24.8331 941.998 24.3928C938.84 23.9525 936.632 21.0363 937.066 17.8793C937.527 14.5254 936.339 10.5967 933.264 7.58847C930.189 4.57932 926.235 3.47773 922.893 4.01229C919.746 4.51556 916.782 2.37194 916.272 -0.775622Z" fill="#70C05B"/>
<path fill-rule="evenodd" clip-rule="evenodd" d="M826.699 200.053C828.953 202.308 828.951 205.959 826.693 208.207C821.608 213.271 814.051 215.779 806.305 214.611C798.559 213.443 792.078 208.817 788.713 202.481C787.219 199.666 788.292 196.177 791.111 194.687C793.93 193.197 797.427 194.27 798.922 197.085C800.51 200.075 803.771 202.567 808.024 203.208C812.279 203.85 816.13 202.431 818.529 200.042C820.787 197.793 824.445 197.798 826.699 200.053Z" fill="#70C05B"/>
<path d="M792.724 3.95803C791.22 1.71704 791.819 -1.31813 794.06 -2.82121L817.797 -18.7424C820.038 -20.2455 823.073 -19.6473 824.576 -17.4063L829.271 -10.4068C830.774 -8.16586 830.176 -5.13069 827.935 -3.62761L804.197 12.2936C801.956 13.7967 798.921 13.1985 797.418 10.9575L792.724 3.95803Z" fill="#1CB9FC"/>
<path d="M846.358 177.491C845.782 174.854 847.453 172.251 850.089 171.675L878.013 165.579C880.65 165.003 883.253 166.674 883.829 169.31L885.627 177.544C886.202 180.18 884.532 182.784 881.895 183.36L853.971 189.456C851.335 190.032 848.731 188.361 848.155 185.725L846.358 177.491Z" fill="#1CB9FC"/>
<path d="M874.497 99.1414C872.483 100.938 869.394 100.761 867.598 98.7476L848.572 77.4178C846.776 75.4041 846.952 72.3156 848.966 70.5194L855.256 64.9092C857.269 63.113 860.358 63.2893 862.154 65.303L881.18 86.6328C882.976 88.6465 882.8 91.735 880.786 93.5312L874.497 99.1414Z" fill="#1CB9FC"/>
<path d="M741.659 173.558C744.319 173.101 746.845 174.887 747.301 177.547L752.137 205.717C752.593 208.376 750.808 210.902 748.148 211.359L739.842 212.785C737.182 213.241 734.656 211.455 734.199 208.796L729.364 180.626C728.907 177.966 730.693 175.44 733.353 174.984L741.659 173.558Z" fill="#1CB9FC"/>
<path d="M1013.04 19.9929L984.804 -5.32392C984.212 -5.85435 983.277 -5.78332 982.798 -5.13954C977.079 2.48521 978.631 13.9141 986.608 21.0668C994.585 28.2194 1006.11 28.5227 1013.07 22.0071C1013.66 21.4583 1013.63 20.5233 1013.04 19.9929Z" fill="#FF6633"/>
<path d="M1159.22 192.796L1187.46 218.113C1188.05 218.643 1188.98 218.572 1189.46 217.928C1195.18 210.304 1193.63 198.875 1185.65 191.722C1177.67 184.569 1166.15 184.266 1159.19 190.782C1158.6 191.33 1158.63 192.265 1159.22 192.796Z" fill="#FF6633"/>
<path d="M1191.08 69.1119L1161.71 45.1138C1161.1 44.611 1160.17 44.7247 1159.72 45.3898C1154.36 53.2682 1156.43 64.6141 1164.73 71.3942C1173.02 78.1743 1184.55 77.9497 1191.21 71.1224C1191.77 70.5474 1191.69 69.6147 1191.08 69.1119Z" fill="#FF6633"/>
<path d="M1000.6 152.597L1027.31 125.675C1027.86 125.111 1027.84 124.173 1027.22 123.662C1019.9 117.567 1008.4 118.54 1000.86 126.146C993.311 133.753 992.427 145.25 998.583 152.53C999.102 153.143 1000.04 153.161 1000.6 152.597Z" fill="#FF6633"/>
<path d="M994.915 91.3229C989.347 91.9142 983.872 83.3391 982.686 72.1699C981.5 61.0007 985.052 51.4669 990.62 50.8756C996.188 50.2843 1001.66 58.8594 1002.85 70.0286C1004.04 81.1978 1000.48 90.7316 994.915 91.3229Z" fill="#FCA21C"/>
<path d="M1180.57 110.581C1186.14 109.99 1191.61 118.565 1192.8 129.734C1193.99 140.903 1190.43 150.437 1184.87 151.029C1179.3 151.62 1173.82 143.045 1172.64 131.876C1171.45 120.706 1175 111.173 1180.57 110.581Z" fill="#FCA21C"/>
<path d="M1119.86 4.90633C1123.48 7.509 1121.1 17.0123 1114.54 26.1326C1107.99 35.2529 1099.74 40.5364 1096.11 37.9337C1092.49 35.3311 1094.87 25.8278 1101.43 16.7075C1107.98 7.58721 1116.23 2.30366 1119.86 4.90633Z" fill="#FCA21C"/>
<path d="M1065.98 159.895C1061.54 159.412 1058.94 149.969 1060.15 138.803C1061.37 127.637 1065.95 118.977 1070.38 119.459C1074.81 119.942 1077.42 129.385 1076.21 140.551C1074.99 151.717 1070.41 160.378 1065.98 159.895Z" fill="#FCA21C"/>
<path fill-rule="evenodd" clip-rule="evenodd" d="M1068.33 64.6266C1070.18 67.2202 1069.58 70.8213 1066.99 72.67C1061.14 76.833 1053.28 78.069 1045.83 75.6484C1038.38 73.2277 1032.74 67.6034 1030.46 60.8016C1029.45 57.7804 1031.08 54.5139 1034.1 53.5056C1037.13 52.4972 1040.4 54.129 1041.41 57.1501C1042.49 60.3598 1045.3 63.3519 1049.39 64.6812C1053.48 66.0108 1057.51 65.2415 1060.27 63.2779C1062.87 61.4292 1066.47 62.0331 1068.33 64.6266Z" fill="#70C05B"/>
<path fill-rule="evenodd" clip-rule="evenodd" d="M1110.58 135.599C1108.72 133.006 1109.32 129.404 1111.92 127.556C1117.76 123.393 1125.63 122.157 1133.08 124.577C1140.53 126.998 1146.17 132.622 1148.45 139.424C1149.46 142.445 1147.83 145.712 1144.81 146.72C1141.78 147.729 1138.51 146.097 1137.49 143.076C1136.42 139.866 1133.61 136.874 1129.52 135.545C1125.42 134.215 1121.39 134.984 1118.64 136.948C1116.04 138.797 1112.43 138.193 1110.58 135.599Z" fill="#70C05B"/>
<path fill-rule="evenodd" clip-rule="evenodd" d="M1168.27 -0.775622C1167.76 -3.92318 1169.9 -6.88277 1173.05 -7.38604C1180.13 -8.51935 1187.73 -6.13255 1193.33 -0.654418C1198.93 4.8238 1201.48 12.3663 1200.5 19.4738C1200.07 22.6308 1197.16 24.8331 1194 24.3928C1190.84 23.9525 1188.63 21.0363 1189.07 17.8793C1189.53 14.5254 1188.34 10.5967 1185.26 7.58847C1182.19 4.57932 1178.23 3.47773 1174.89 4.01229C1171.75 4.51556 1168.78 2.37194 1168.27 -0.775622Z" fill="#70C05B"/>
<path fill-rule="evenodd" clip-rule="evenodd" d="M1078.7 200.053C1080.95 202.308 1080.95 205.959 1078.69 208.207C1073.61 213.271 1066.05 215.779 1058.3 214.611C1050.56 213.443 1044.08 208.817 1040.71 202.481C1039.22 199.666 1040.29 196.177 1043.11 194.687C1045.93 193.197 1049.43 194.27 1050.92 197.085C1052.51 200.075 1055.77 202.567 1060.02 203.208C1064.28 203.85 1068.13 202.431 1070.53 200.042C1072.79 197.793 1076.44 197.798 1078.7 200.053Z" fill="#70C05B"/>
<path d="M1044.72 3.95803C1043.22 1.71704 1043.82 -1.31813 1046.06 -2.82121L1069.8 -18.7424C1072.04 -20.2455 1075.07 -19.6473 1076.58 -17.4063L1081.27 -10.4068C1082.77 -8.16586 1082.18 -5.13069 1079.93 -3.62761L1056.2 12.2936C1053.96 13.7967 1050.92 13.1985 1049.42 10.9575L1044.72 3.95803Z" fill="#1CB9FC"/>
<path d="M1098.36 177.491C1097.78 174.854 1099.45 172.251 1102.09 171.675L1130.01 165.579C1132.65 165.003 1135.25 166.674 1135.83 169.31L1137.63 177.544C1138.2 180.18 1136.53 182.784 1133.9 183.36L1105.97 189.456C1103.33 190.032 1100.73 188.361 1100.16 185.725L1098.36 177.491Z" fill="#1CB9FC"/>
<path d="M1126.5 99.1414C1124.48 100.938 1121.39 100.761 1119.6 98.7476L1100.57 77.4178C1098.78 75.4041 1098.95 72.3156 1100.97 70.5194L1107.26 64.9092C1109.27 63.113 1112.36 63.2893 1114.15 65.303L1133.18 86.6328C1134.98 88.6465 1134.8 91.735 1132.79 93.5312L1126.5 99.1414Z" fill="#1CB9FC"/>
<path d="M993.659 173.558C996.319 173.101 998.845 174.887 999.301 177.547L1004.14 205.717C1004.59 208.376 1002.81 210.902 1000.15 211.359L991.842 212.785C989.182 213.241 986.656 211.455 986.199 208.796L981.364 180.626C980.907 177.966 982.693 175.44 985.353 174.984L993.659 173.558Z" fill="#1CB9FC"/>
<path d="M1265.04 19.9929L1236.8 -5.32392C1236.21 -5.85435 1235.28 -5.78332 1234.8 -5.13954C1229.08 2.48521 1230.63 13.9141 1238.61 21.0668C1246.59 28.2194 1258.11 28.5227 1265.07 22.0071C1265.66 21.4583 1265.63 20.5233 1265.04 19.9929Z" fill="#FF6633"/>
<path d="M1411.22 192.796L1439.46 218.113C1440.05 218.643 1440.98 218.572 1441.46 217.928C1447.18 210.304 1445.63 198.875 1437.65 191.722C1429.67 184.569 1418.15 184.266 1411.19 190.782C1410.6 191.33 1410.63 192.265 1411.22 192.796Z" fill="#FF6633"/>
<path d="M1443.08 69.1119L1413.71 45.1138C1413.1 44.611 1412.17 44.7247 1411.72 45.3898C1406.36 53.2682 1408.43 64.6141 1416.73 71.3942C1425.02 78.1743 1436.55 77.9497 1443.21 71.1224C1443.77 70.5474 1443.69 69.6147 1443.08 69.1119Z" fill="#FF6633"/>
<path d="M1252.6 152.597L1279.31 125.675C1279.86 125.111 1279.84 124.173 1279.22 123.662C1271.9 117.567 1260.4 118.54 1252.86 126.146C1245.31 133.753 1244.43 145.25 1250.58 152.53C1251.1 153.143 1252.04 153.161 1252.6 152.597Z" fill="#FF6633"/>
<path d="M1246.92 91.3229C1241.35 91.9142 1235.87 83.3391 1234.69 72.1699C1233.5 61.0007 1237.05 51.4669 1242.62 50.8756C1248.19 50.2843 1253.66 58.8594 1254.85 70.0286C1256.04 81.1978 1252.48 90.7316 1246.92 91.3229Z" fill="#FCA21C"/>
<path d="M1432.57 110.581C1438.14 109.99 1443.61 118.565 1444.8 129.734C1445.99 140.903 1442.43 150.437 1436.87 151.029C1431.3 151.62 1425.82 143.045 1424.64 131.876C1423.45 120.706 1427 111.173 1432.57 110.581Z" fill="#FCA21C"/>
<path d="M1371.86 4.90633C1375.48 7.509 1373.1 17.0123 1366.54 26.1326C1359.99 35.2529 1351.74 40.5364 1348.11 37.9337C1344.49 35.3311 1346.87 25.8278 1353.43 16.7075C1359.98 7.58721 1368.23 2.30366 1371.86 4.90633Z" fill="#FCA21C"/>
<path d="M1317.98 159.895C1313.54 159.412 1310.94 149.969 1312.15 138.803C1313.37 127.637 1317.95 118.977 1322.38 119.459C1326.81 119.942 1329.42 129.385 1328.21 140.551C1326.99 151.717 1322.41 160.378 1317.98 159.895Z" fill="#FCA21C"/>
<path fill-rule="evenodd" clip-rule="evenodd" d="M1320.33 64.6266C1322.18 67.2202 1321.58 70.8213 1318.99 72.67C1313.14 76.833 1305.28 78.069 1297.83 75.6484C1290.38 73.2277 1284.74 67.6034 1282.46 60.8016C1281.45 57.7804 1283.08 54.5139 1286.1 53.5056C1289.13 52.4972 1292.4 54.129 1293.41 57.1501C1294.49 60.3598 1297.3 63.3519 1301.39 64.6812C1305.48 66.0108 1309.51 65.2415 1312.27 63.2779C1314.87 61.4292 1318.47 62.0331 1320.33 64.6266Z" fill="#70C05B"/>
<path fill-rule="evenodd" clip-rule="evenodd" d="M1362.58 135.599C1360.72 133.006 1361.32 129.404 1363.92 127.556C1369.76 123.393 1377.63 122.157 1385.08 124.577C1392.53 126.998 1398.17 132.622 1400.45 139.424C1401.46 142.445 1399.83 145.712 1396.81 146.72C1393.78 147.729 1390.51 146.097 1389.49 143.076C1388.42 139.866 1385.61 136.874 1381.52 135.545C1377.42 134.215 1373.39 134.984 1370.64 136.948C1368.04 138.797 1364.43 138.193 1362.58 135.599Z" fill="#70C05B"/>
<path fill-rule="evenodd" clip-rule="evenodd" d="M1420.27 -0.775622C1419.76 -3.92318 1421.9 -6.88277 1425.05 -7.38604C1432.13 -8.51935 1439.73 -6.13255 1445.33 -0.654418C1450.93 4.8238 1453.48 12.3663 1452.5 19.4738C1452.07 22.6308 1449.16 24.8331 1446 24.3928C1442.84 23.9525 1440.63 21.0363 1441.07 17.8793C1441.53 14.5254 1440.34 10.5967 1437.26 7.58847C1434.19 4.57932 1430.23 3.47773 1426.89 4.01229C1423.75 4.51556 1420.78 2.37194 1420.27 -0.775622Z" fill="#70C05B"/>
<path fill-rule="evenodd" clip-rule="evenodd" d="M1330.7 200.053C1332.95 202.308 1332.95 205.959 1330.69 208.207C1325.61 213.271 1318.05 215.779 1310.3 214.611C1302.56 213.443 1296.08 208.817 1292.71 202.481C1291.22 199.666 1292.29 196.177 1295.11 194.687C1297.93 193.197 1301.43 194.27 1302.92 197.085C1304.51 200.075 1307.77 202.567 1312.02 203.208C1316.28 203.85 1320.13 202.431 1322.53 200.042C1324.79 197.793 1328.44 197.798 1330.7 200.053Z" fill="#70C05B"/>
<path d="M1296.72 3.95803C1295.22 1.71704 1295.82 -1.31813 1298.06 -2.82121L1321.8 -18.7424C1324.04 -20.2455 1327.07 -19.6473 1328.58 -17.4063L1333.27 -10.4068C1334.77 -8.16586 1334.18 -5.13069 1331.93 -3.62761L1308.2 12.2936C1305.96 13.7967 1302.92 13.1985 1301.42 10.9575L1296.72 3.95803Z" fill="#1CB9FC"/>
<path d="M1350.36 177.491C1349.78 174.854 1351.45 172.251 1354.09 171.675L1382.01 165.579C1384.65 165.003 1387.25 166.674 1387.83 169.31L1389.63 177.544C1390.2 180.18 1388.53 182.784 1385.9 183.36L1357.97 189.456C1355.33 190.032 1352.73 188.361 1352.16 185.725L1350.36 177.491Z" fill="#1CB9FC"/>
<path d="M1378.5 99.1414C1376.48 100.938 1373.39 100.761 1371.6 98.7476L1352.57 77.4178C1350.78 75.4041 1350.95 72.3156 1352.97 70.5194L1359.26 64.9092C1361.27 63.113 1364.36 63.2893 1366.15 65.303L1385.18 86.6328C1386.98 88.6465 1386.8 91.735 1384.79 93.5312L1378.5 99.1414Z" fill="#1CB9FC"/>
<path d="M1245.66 173.558C1248.32 173.101 1250.84 174.887 1251.3 177.547L1256.14 205.717C1256.59 208.376 1254.81 210.902 1252.15 211.359L1243.84 212.785C1241.18 213.241 1238.66 211.455 1238.2 208.796L1233.36 180.626C1232.91 177.966 1234.69 175.44 1237.35 174.984L1245.66 173.558Z" fill="#1CB9FC"/>
</g>
</svg>
